<svg width="228" height="240" xmlns="http://www.w3.org/2000/svg" clip-rule="evenodd" version="1.1">

 <g>
  <title>Layer 1</title>
  <g id="svg_19">
   <path id="svg_20" d="m75.5,61.5c-4.0686,-0.5264 -8.0686,-1.6931 -12,-3.5c-1.3825,-1.2708 -2.3825,-2.7708 -3,-4.5c1.2845,-2.4528 1.2845,-4.9528 0,-7.5c1.3877,-4.5944 4.3877,-7.5944 9,-9c2.0787,-0.8077 4.0787,-0.641 6,0.5c0.8128,1.3139 1.8128,2.4805 3,3.5c-0.3333,0.3333 -0.6667,0.6667 -1,1c0.948,0.4828 1.948,0.6495 3,0.5c0.7943,2.3728 1.7943,4.7062 3,7c-0.3457,1.1956 -0.8457,1.1956 -1.5,0c-0.8625,3.2276 -2.3625,6.0609 -4.5,8.5c1.1379,1.7343 1.6379,3.5676 1.5,5.5c-0.8159,-1.3228 -1.9826,-1.9894 -3.5,-2z" fill="#17354a"/>
  </g>
  <g id="svg_43">
   <path id="svg_44" d="m155.5,34.5c4.462,1.5064 7.629,4.5064 9.5,9c1.003,11.8339 -4.497,17.8339 -16.5,18c-10.667,19.3333 -21.333,38.667 -32,58c-1.166,12.32 -1.333,24.653 -0.5,37c10.266,-14.087 23.766,-23.754 40.5,-29c7.247,-0.055 13.913,-0.888 20,-2.5c4.456,6.125 9.289,11.958 14.5,17.5c0.49,1.293 0.657,2.627 0.5,4c-3.41,0.116 -4.744,-1.55 -4,-5c-2.538,-0.543 -4.872,-1.543 -7,-3c-2.978,-3.313 -5.978,-6.647 -9,-10c-18.422,5.121 -34.256,14.454 -47.5,28c-1.094,1.578 -1.928,3.245 -2.5,5c-2.581,2.82 -4.414,6.154 -5.5,10c-0.5,12.662 -0.667,25.329 -0.5,38c-0.722,0.418 -1.222,1.084 -1.5,2c-1.49,-1.228 -2.99,-1.228 -4.5,0c0.329,-13.177 -0.005,-26.177 -1,-39c-0.921,-3.799 -2.588,-7.132 -5,-10c-4.0547,-6.893 -9.3881,-12.726 -16,-17.5c-10.8459,-6.839 -22.3459,-12.339 -34.5,-16.5c-8.3053,8.626 -16.1386,17.626 -23.5,27c16.3119,5.943 32.3119,12.776 48,20.5c10.4332,5.936 19.0999,13.769 26,23.5c1,2.667 2,5.333 3,8c0.065,0.438 -0.101,0.772 -0.5,1c-1.793,-2.808 -4.293,-4.474 -7.5,-5c0.262,-1.478 -0.0713,-2.811 -1,-4c-1.3333,1.333 -2.6667,1.333 -4,0c-0.9803,-1.481 -2.147,-2.815 -3.5,-4c-1.4619,1.648 -3.2953,2.648 -5.5,3c-18.8128,-9.907 -37.8128,-19.574 -57,-29c-1.1653,-1.916 -2.832,-2.749 -5,-2.5c1.1934,1.095 2.5267,1.928 4,2.5c-0.2828,0.789 -0.7828,1.456 -1.5,2c-3.3663,-3.268 -7.1996,-4.934 -11.5,-5c0.3627,0.683 0.6961,1.35 1,2c-5.10767,-0.534 -5.10767,0.632 0,3.5c26.0688,14.7 52.4021,28.867 79,42.5c0.5577,1.29 1.5577,2.123 3,2.5c-9.3271,0.081 -9.9938,1.915 -2,5.5c2.2784,-0.281 3.4451,-1.615 3.5,-4c0.7412,1.141 1.5745,1.141 2.5,0c0.692,0.525 1.192,1.192 1.5,2c1.167,-1.167 2.333,-2.333 3.5,-3.5c0.937,-0.692 1.603,-0.525 2,0.5c-6.887,4.25 -6.554,7.75 1,10.5c3.428,0.701 6.762,0.368 10,-1c1.641,-1.129 2.641,-2.629 3,-4.5c0.02,-2.051 0.687,-2.718 2,-2c0.142,2.194 -0.191,4.527 -1,7c-3.382,1.263 -6.882,2.263 -10.5,3c-4.079,-1.184 -8.079,-2.518 -12,-4c-1.829,0.621 -3.329,0.955 -4.5,1c-0.7203,-2.56 -2.387,-4.393 -5,-5.5c-23.0541,-12.525 -46.0541,-25.025 -69,-37.5c-6.1343,-3.904 -12.46767,-7.571 -19,-11c-0.16501,-3.35 0.00166,-6.683 0.5,-10c3.40444,-3.894 6.5711,-7.894 9.5,-12c8.1349,-8.974 16.1349,-18.14 24,-27.5c2.184,-0.442 4.184,0.058 6,1.5c-9.547,11.925 -19.2137,23.759 -29,35.5c0.6667,0.667 1.3333,0.667 2,0c10.2079,-11.206 20.0412,-22.706 29.5,-34.5c2.1693,-3.69 5.336,-5.357 9.5,-5c9.7996,3.559 19.4663,7.726 29,12.5c10.112,5.28 18.112,12.78 24,22.5c0.06,0.543 0.393,0.876 1,1c0.974,-2.243 1.308,-4.576 1,-7c1.911,-0.074 3.078,-1.074 3.5,-3c0.667,-3.333 0.667,-6.667 0,-10c-0.667,0.667 -1.333,1.333 -2,2c-0.667,-6 -0.667,-12 0,-18c0.844,-2.968 2.344,-5.468 4.5,-7.5c0.795,-2.924 1.129,-5.757 1,-8.5c3.667,-7.3333 7.333,-14.6667 11,-22c5.478,-8.277 10.478,-16.9437 15,-26c-2.309,-2.9238 -3.642,-6.2571 -4,-10c1.648,-9.3462 7.314,-13.6796 17,-13z" fill="#193447"/>
  </g>
  <g id="svg_45">
   <path id="svg_46" d="m150.5,42.5c7.336,0.8958 8.67,4.0625 4,9.5c-5.5,1.1667 -7.667,-1 -6.5,-6.5c1.045,-0.8734 1.878,-1.8734 2.5,-3z" fill="#e9f0f2"/>
  </g>
  <g id="svg_47">
   <path id="svg_48" d="m116.5,105.5c0.129,2.743 -0.205,5.576 -1,8.5c-2.156,2.032 -3.656,4.532 -4.5,7.5c-0.667,6 -0.667,12 0,18c0.667,-0.667 1.333,-1.333 2,-2c0.667,3.333 0.667,6.667 0,10c-0.422,1.926 -1.589,2.926 -3.5,3c0.327,-9.848 -0.006,-19.514 -1,-29c-10.9877,-19.973 -21.9877,-39.9729 -33,-60c1.5174,0.0106 2.6841,0.6772 3.5,2c0.1379,-1.9324 -0.3621,-3.7657 -1.5,-5.5c2.1375,-2.4391 3.6375,-5.2724 4.5,-8.5c0.6543,1.1956 1.1543,1.1956 1.5,0c-1.2057,-2.2938 -2.2057,-4.6272 -3,-7c-1.052,0.1495 -2.052,-0.0172 -3,-0.5c0.3333,-0.3333 0.6667,-0.6667 1,-1c-1.1872,-1.0195 -2.1872,-2.1861 -3,-3.5c-1.9213,-1.141 -3.9213,-1.3077 -6,-0.5c-4.6123,1.4056 -7.6123,4.4056 -9,9c1.2845,2.5472 1.2845,5.0472 0,7.5c-3.3772,-10.5671 0.4561,-16.9004 11.5,-19c8.0468,0.3813 12.5468,4.548 13.5,12.5c-0.7955,4.3206 -1.6288,8.4873 -2.5,12.5c4.9409,9.5564 10.1075,18.8898 15.5,28c3.255,5.5084 6.255,11.175 9,17c-0.131,0.876 0.202,1.543 1,2c1.329,-23.1632 1.329,-46.1632 0,-69c-3.862,-1.0237 -6.695,-3.3571 -8.5,-7c-2.2376,-8.0121 0.262,-13.8454 7.5,-17.5c7.235,-1.9269 12.735,0.2397 16.5,6.5c2.708,8.5239 0.042,14.5239 -8,18c-0.83,22.8371 -0.663,45.5037 0.5,68z" fill="#183446"/>
  </g>
  <g id="svg_49">
   <path id="svg_50" d="m108.5,37.5c1.329,22.8368 1.329,45.8368 0,69c-0.798,-0.457 -1.131,-1.124 -1,-2c0.997,-22.1604 1.331,-44.4938 1,-67z" fill="#475d6a"/>
  </g>
  <g id="svg_51">
   <path id="svg_52" d="m69.5,42.5c7.1275,0.2063 8.7942,3.373 5,9.5c-7.2465,0.1034 -8.9132,-3.0632 -5,-9.5z" fill="#eff3f3"/>
  </g>
  <g id="svg_53">
   <path id="svg_54" d="m109.5,20.5c6.986,-0.169 8.653,2.6643 5,8.5c-7.091,0.3958 -8.758,-2.4375 -5,-8.5z" fill="#eaf4f4"/>
  </g>
  <g id="svg_59">
   <path id="svg_60" d="m108.5,121.5c0.994,9.486 1.327,19.152 1,29c0.308,2.424 -0.026,4.757 -1,7c-0.607,-0.124 -0.94,-0.457 -1,-1c0.995,-11.488 1.328,-23.155 1,-35z" fill="#4e6472"/>
  </g>
  <g id="svg_61">
   <path id="svg_62" d="m182.5,124.5c1.955,-0.823 3.955,-0.99 6,-0.5c1.205,1.376 2.538,2.542 4,3.5c9.264,11.774 18.764,23.44 28.5,35c1.316,3.188 1.816,6.522 1.5,10c-22.206,12.935 -44.539,25.602 -67,38c-8.306,4.488 -16.64,8.988 -25,13.5c-1.149,4.981 -4.149,8.147 -9,9.5c1.684,-1.5 3.351,-3.167 5,-5c0.966,-1.896 1.299,-3.896 1,-6c3.672,0.317 5.338,-1.349 5,-5c-1.679,0.215 -2.679,-0.452 -3,-2c27.929,-14.632 55.595,-29.799 83,-45.5c1.211,-0.893 1.211,-1.726 0,-2.5c-20.302,11.152 -40.635,22.319 -61,33.5c-8.068,4.358 -15.735,9.191 -23,14.5c-1.083,0.039 -2.083,0.373 -3,1c-0.682,-0.743 -1.349,-1.409 -2,-2c4.873,-4.358 10.206,-8.191 16,-11.5c21.488,-11.241 42.488,-23.241 63,-36c-17.798,8.065 -35.465,16.731 -53,26c-7.504,4.689 -14.838,9.522 -22,14.5c-0.528,-1.347 -0.695,-2.681 -0.5,-4c3.15,1.661 4.65,0.661 4.5,-3c-1.333,0 -2.667,0 -4,0c0,-1 0,-2 0,-3c2.429,0.085 4.429,1.085 6,3c1.73,-0.526 3.064,-1.526 4,-3c-1.493,-0.641 -2.493,-1.641 -3,-3c-2.436,0.183 -4.603,-0.484 -6.5,-2c-0.333,1.333 -0.667,2.667 -1,4c-1.948,3.005 -4.114,5.838 -6.5,8.5c0.333,0.333 0.667,0.667 1,1c-1.077,0.47 -2.077,0.303 -3,-0.5c0.667,-1.667 1.333,-3.333 2,-5c9.013,-13.358 21.013,-23.191 36,-29.5c12.583,-5.461 25.25,-10.628 38,-15.5c-4.69,-5.686 -9.357,-11.353 -14,-17c2.128,1.457 4.462,2.457 7,3c-0.744,3.45 0.59,5.116 4,5c0.157,-1.373 -0.01,-2.707 -0.5,-4c-5.211,-5.542 -10.044,-11.375 -14.5,-17.5c-6.087,1.612 -12.753,2.445 -20,2.5c5.803,-3.563 12.136,-5.396 19,-5.5c11.127,13.463 22.627,26.629 34.5,39.5c0.667,-0.667 0.667,-1.333 0,-2c-9.786,-11.274 -18.953,-22.94 -27.5,-35z" fill="#1b3446"/>
  </g>
  <g id="svg_63">
   <path id="svg_64" d="m27.5,169.5c-0.3333,0 -0.6667,0 -1,0c-1.4733,-0.572 -2.8066,-1.405 -4,-2.5c2.168,-0.249 3.8347,0.584 5,2.5z" fill="#7898af"/>
  </g>
  <g id="svg_65">
   <path id="svg_66" d="m134.5,194.5c7.392,-7.544 16.059,-13.377 26,-17.5c11.002,-5.221 22.336,-9.221 34,-12c-20.521,8.993 -40.521,18.827 -60,29.5z" fill="#dce8ed"/>
  </g>
  <g id="svg_67">
   <path id="svg_68" d="m14.5,168.5c20.5816,12.298 41.5816,24.132 63,35.5c5.5696,3.275 10.9029,6.775 16,10.5c-26.5979,-13.633 -52.9312,-27.8 -79,-42.5c-5.10767,-2.868 -5.10767,-4.034 0,-3.5z" fill="#d8e9ee"/>
  </g>
  <g id="svg_73">
   <path id="svg_74" d="m30.5,165.5c16.7391,3.842 32.7391,10.342 48,19.5c3.3333,2.667 6.6667,5.333 10,8c-18.8168,-9.905 -38.1501,-19.072 -58,-27.5z" fill="#dae9ee"/>
  </g>
  <g id="svg_75">
   <path id="svg_76" d="m108.5,172.5c0.995,12.823 1.329,25.823 1,39c-1.333,0 -2,-0.667 -2,-2c0.995,-12.155 1.329,-24.489 1,-37z" fill="#4d6a7b"/>
  </g>
  <g id="svg_77">
   <path id="svg_78" d="m27.5,169.5c19.1872,9.426 38.1872,19.093 57,29c5.7691,4.594 11.4358,9.427 17,14.5c-0.594,0.464 -1.261,0.631 -2,0.5c-1.5938,-1.483 -3.2605,-2.983 -5,-4.5c-14.8389,-8.587 -29.8389,-16.92 -45,-25c-7.5699,-4.608 -14.9032,-9.442 -22,-14.5z" fill="#e1edf0"/>
  </g>
  <g id="svg_81">
   <path id="svg_82" d="m129.5,215.5c-0.333,0 -0.667,0 -1,0c7.265,-5.309 14.932,-10.142 23,-14.5c20.365,-11.181 40.698,-22.348 61,-33.5c1.211,0.774 1.211,1.607 0,2.5c-27.405,15.701 -55.071,30.868 -83,45.5z" fill="#dcebef"/>
  </g>
  <g id="svg_85">
   <path id="svg_86" d="m26.5,169.5c0.3333,0 0.6667,0 1,0c7.0968,5.058 14.4301,9.892 22,14.5c15.1611,8.08 30.1611,16.413 45,25c1.7395,1.517 3.4062,3.017 5,4.5c-0.9822,0.641 -1.9822,1.307 -3,2c-0.9168,-0.627 -1.9168,-0.961 -3,-1c-5.0971,-3.725 -10.4304,-7.225 -16,-10.5c-21.4184,-11.368 -42.4184,-23.202 -63,-35.5c-0.3039,-0.65 -0.6373,-1.317 -1,-2c4.3004,0.066 8.1337,1.732 11.5,5c0.7172,-0.544 1.2172,-1.211 1.5,-2z" fill="#1d3544"/>
  </g>
  <g id="svg_87">
   <path id="svg_88" d="m123.5,214.5c-0.923,0.803 -1.923,0.97 -3,0.5c2.539,-2.37 4.872,-4.87 7,-7.5c7.162,-4.978 14.496,-9.811 22,-14.5c17.535,-9.269 35.202,-17.935 53,-26c-20.512,12.759 -41.512,24.759 -63,36c-5.794,3.309 -11.127,7.142 -16,11.5z" fill="#e2ecf0"/>
  </g>
  <g id="svg_89">
   <path id="svg_90" d="m134.5,194.5c0.507,1.359 1.507,2.359 3,3c-0.936,1.474 -2.27,2.474 -4,3c-1.571,-1.915 -3.571,-2.915 -6,-3c0,1 0,2 0,3c1.333,0 2.667,0 4,0c0.15,3.661 -1.35,4.661 -4.5,3c-0.195,1.319 -0.028,2.653 0.5,4c-2.128,2.63 -4.461,5.13 -7,7.5c1.077,0.47 2.077,0.303 3,-0.5c0.651,0.591 1.318,1.257 2,2c0.917,-0.627 1.917,-0.961 3,-1c0.333,0 0.667,0 1,0c0.321,1.548 1.321,2.215 3,2c0.338,3.651 -1.328,5.317 -5,5c0.299,2.104 -0.034,4.104 -1,6c-1.649,1.833 -3.316,3.5 -5,5c-8,4.378 -15.666,3.712 -23,-2c-1,-1.333 -2,-2.667 -3,-4c1.171,-0.045 2.671,-0.379 4.5,-1c3.921,1.482 7.921,2.816 12,4c3.618,-0.737 7.118,-1.737 10.5,-3c0.809,-2.473 1.142,-4.806 1,-7c-1.313,-0.718 -1.98,-0.051 -2,2c-3.221,-5.607 -7.888,-7.274 -14,-5c-0.397,-1.025 -1.063,-1.192 -2,-0.5c-1.167,1.167 -2.333,2.333 -3.5,3.5c-0.308,-0.808 -0.808,-1.475 -1.5,-2c-0.9255,1.141 -1.7588,1.141 -2.5,0c-0.0549,2.385 -1.2216,3.719 -3.5,4c-7.9938,-3.585 -7.3271,-5.419 2,-5.5c-1.4423,-0.377 -2.4423,-1.21 -3,-2.5c1.0832,0.039 2.0832,0.373 3,1c1.0178,-0.693 2.0178,-1.359 3,-2c0.739,0.131 1.406,-0.036 2,-0.5c-5.5642,-5.073 -11.2309,-9.906 -17,-14.5c2.2047,-0.352 4.0381,-1.352 5.5,-3c1.353,1.185 2.5197,2.519 3.5,4c1.3333,1.333 2.6667,1.333 4,0c0.9287,1.189 1.262,2.522 1,4c3.207,0.526 5.707,2.192 7.5,5c0.399,-0.228 0.565,-0.562 0.5,-1c0.838,0.342 1.172,1.008 1,2c0,1.333 0.667,2 2,2c1.51,-1.228 3.01,-1.228 4.5,0c0.278,-0.916 0.778,-1.582 1.5,-2c1.315,-0.388 2.315,-1.722 3,-4c0.923,0.803 1.923,0.97 3,0.5c-0.333,-0.333 -0.667,-0.667 -1,-1c2.386,-2.662 4.552,-5.495 6.5,-8.5c0.333,-1.333 0.667,-2.667 1,-4c1.897,1.516 4.064,2.183 6.5,2z" fill="#18374d"/>
  </g>
  <g id="svg_93">
   <path id="svg_94" d="m121.5,222.5c-0.359,1.871 -1.359,3.371 -3,4.5c-3.238,1.368 -6.572,1.701 -10,1c-7.554,-2.75 -7.887,-6.25 -1,-10.5c6.112,-2.274 10.779,-0.607 14,5z" fill="#f3f7f7"/>
  </g>
 </g>
</svg>